<svg version="1.1" id="Laag_1" xmlns="http://www.w3.org/2000/svg" xmlns:xlink="http://www.w3.org/1999/xlink" x="0px" y="0px"
	 viewBox="0 0 178 178" style="enable-background:new 0 0 178 178;" xml:space="preserve">
<path fill="#054F9C" id="Element_1" class="st0" d="M44.6,164c-7.1-5.2-13.8-11-20.1-17.1c-8.6-8-17.6-16.6-21.5-28.5C-5,94.3,3.9,50.1,18.7,31.3
	C28.3,19,48.2,10.6,61.7,5.4c15.6-6,32.6-7,48.8-2.8c25.7,6.8,48.3,27.3,60.5,54.4c4.2,9.5,7.2,19.9,7.1,30.6
	c-0.2,14-5.6,27-12.5,38.5c-11.9,20.1-28.7,36.6-48.4,45.3c-19.6,8.7-42.2,9-61.5-0.7C51.8,168.7,48.2,166.4,44.6,164z"/>
<g fill="#fff">
	<path class="st1" d="M121.4,115.7V58.9c0-4.4-3.6-7.9-8-8h-5.8v3.2h5.8c2.6,0,4.8,2.1,4.8,4.8v9H48.3v-9c0-2.6,2.1-4.8,4.8-4.8h5.8
		v-3.2h-5.8c-4.4,0-7.9,3.6-8,8v56.9c0,4.4,3.6,7.9,8,8h60.3C117.8,123.7,121.4,120.1,121.4,115.7z M48.3,115.7V71h69.9v44.7
		c0,2.6-2.1,4.8-4.8,4.8H53.1C50.5,120.5,48.3,118.4,48.3,115.7z"/>
	<path class="st1" d="M126.4,59.9l-2.1,2.4c1,0.9,1.6,2.2,1.6,3.6v56.9c0,2.6-2.1,4.8-4.8,4.8H60.9c-1.3,0-2.5-0.5-3.4-1.4l-2.3,2.3
		c1.5,1.5,3.5,2.3,5.6,2.3h60.3c4.4,0,7.9-3.6,8-8V65.9C129.2,63.6,128.2,61.5,126.4,59.9z"/>
	<rect x="67.8" y="50.9" class="st1" width="30.8" height="3.2"/>
	<path class="st1" d="M100.3,74.5h-3.2V85H84.8V74.5h-3.2V85H69.4V74.5h-3.2V85H55.4v3.2h10.9v14H55.4v3.2h10.9v10.5h3.2v-10.5h12.2
		v10.5h3.2v-10.5h12.2v10.5h3.2v-10.5h10.9v-3.2h-10.9v-14h10.9V85h-10.9V74.5z M69.4,102.2v-14h12.2v14H69.4z M97.1,102.2H84.8v-14
		h12.2V102.2z"/>
	<rect x="61.7" y="46.7" class="st1" width="3.2" height="11.5"/>
	<rect x="101.5" y="46.7" class="st1" width="3.2" height="11.5"/>
</g>
</svg>
