<svg version="1.1" id="Laag_1" xmlns="http://www.w3.org/2000/svg" xmlns:xlink="http://www.w3.org/1999/xlink" x="0px" y="0px"
	 viewBox="0 0 178 178" style="enable-background:new 0 0 178 178;" xml:space="preserve">
<path fill="#054F9C" id="Element_1" class="st0" d="M44.6,164c-7.1-5.2-13.8-11-20.1-17.1c-8.6-8-17.6-16.6-21.5-28.5C-5,94.3,3.9,50.1,18.7,31.3
	C28.3,19,48.2,10.6,61.7,5.4c15.6-6,32.6-7,48.8-2.8c25.7,6.8,48.3,27.3,60.5,54.4c4.2,9.5,7.2,19.9,7.1,30.6
	c-0.2,14-5.6,27-12.5,38.5c-11.9,20.1-28.7,36.6-48.4,45.3c-19.6,8.7-42.2,9-61.5-0.7C51.8,168.7,48.2,166.4,44.6,164z"/>
<polygon fill="#fff" class="st1" points="100.7,76.2 88.5,85.4 88.5,58.3 85.6,58.3 85.6,87.6 80.2,91.7 81.9,94 85.6,91.3 85.6,95.9 88.5,95.9 
	88.5,89 102.4,78.5 "/>
<rect fill="#fff" x="85.6" y="43.9" class="st1" width="2.9" height="6"/>
<rect fill="#fff" x="64.3" y="49.3" transform="matrix(0.866 -0.5 0.5 0.866 -17.3512 39.887)" class="st1" width="2.9" height="6"/>
<rect fill="#fff" x="48.5" y="64.7" transform="matrix(0.4999 -0.8661 0.8661 0.4999 -33.6194 77.1487)" class="st1" width="2.9" height="6"/>
<rect fill="#fff" x="41" y="87.4" class="st1" width="6" height="2.9"/>
<rect fill="#fff" x="46.5" y="108.7" transform="matrix(0.866 -0.5 0.5 0.866 -48.4742 39.4978)" class="st1" width="6" height="2.9"/>
<rect fill="#fff" x="61.8" y="124.5" transform="matrix(0.4999 -0.8661 0.8661 0.4999 -76.666 119.1395)" class="st1" width="6" height="2.9"/>
<rect fill="#fff" x="84.6" y="128.9" class="st1" width="2.9" height="6"/>
<rect fill="#fff" x="105.9" y="123.5" transform="matrix(0.866 -0.5 0.5 0.866 -48.8633 70.6211)" class="st1" width="2.9" height="6"/>
<rect fill="#fff" x="121.6" y="108.1" transform="matrix(0.4999 -0.8661 0.8661 0.4999 -34.6786 162.1823)" class="st1" width="2.9" height="6"/>
<rect fill="#fff" x="126" y="88.5" class="st1" width="6" height="2.9"/>
<rect fill="#fff" x="120.6" y="67.1" transform="matrix(0.866 -0.5 0.5 0.866 -17.7403 71.0073)" class="st1" width="6" height="2.9"/>
<rect fill="#fff" x="105.3" y="51.4" transform="matrix(0.4999 -0.8661 0.8661 0.4999 8.3679 120.1962)" class="st1" width="6" height="2.9"/>
</svg>
