<svg version="1.1" id="Laag_1" xmlns="http://www.w3.org/2000/svg" xmlns:xlink="http://www.w3.org/1999/xlink" x="0px" y="0px"
	 viewBox="0 0 178 178" style="enable-background:new 0 0 178 178;" xml:space="preserve">

<path fill="#054F9C" class="st0" d="M173.5,62.4c-1.1-2.8-2.5-5.6-3.9-8.7c-8.8-16.9-24.7-28.2-41.4-35.2s-34.5-10-52-14.6
	c-7.3-1.8-14.7-4-22.4-3.9c-15.9,0.1-30.9,10.4-40,24.5C4.6,38.5,0.7,55.9,0.1,73.1c-0.6,15.4,1.6,31.6,9.6,44.3
	c4.3,6.9,10,12.4,15.8,17.9c8.9,8.6,17.8,17.1,26.7,25.7c4.8,4.6,9.7,9.2,15.4,12.4c18.8,10.3,47.4,2,62.3-12.3
	c3.6-3.4,7.3-6.5,11.2-9.6c7.3-5.9,14.9-11.7,20.7-19.4c5-6.5,8.9-14,11.5-22C179.2,92.1,179.9,78.4,173.5,62.4z"/>
<g fill="#fff" id="Group_223" transform="translate(0 0)">
	<g id="Group_222" transform="translate(0 0)">
		<path id="Path_232" class="st1" d="M46.4,92c-2.6,0.5-4.2,3.1-3.6,5.6c0.1,0.7,0.4,1.3,0.9,1.9l-2,11.7c-0.2,0.9,0.5,1.8,1.4,2
			c0.1,0,0.2,0,0.3,0h8.1c1,0,1.7-0.8,1.7-1.7c0-0.1,0-0.2,0-0.2l-1.7-12.2c1.3-2.2,0.6-5.1-1.6-6.5v-6.3l10.7,4.6v26.5
			c0,3.3,2.7,5.9,5.9,5.9h48.7c3.3,0,5.9-2.7,5.9-5.9V89.3l25.4-11c0.9-0.4,1.3-1.4,0.9-2.3c-0.2-0.4-0.6-0.8-1-0.9L88.5,55.4
			c-0.4-0.1-0.8-0.1-1.2,0C67.5,62.9,35.1,74.8,32,75c-1,0-1.7,0.8-1.7,1.7c0,0.7,0.4,1.3,1,1.6l15,6.5V92z M45.4,109.8l1.8-10.5
			c0.1-0.6-0.1-1.2-0.6-1.6c-0.5-0.5-0.6-1.3-0.2-1.8c0.5-0.5,1.3-0.6,1.8-0.2c0.5,0.5,0.6,1.3,0.2,1.8c0,0,0,0,0,0
			c-0.3,0.4-0.5,0.9-0.4,1.4l1.5,10.9L45.4,109.8z M117.5,117.4c0,1.4-1.1,2.5-2.5,2.5H66.4c-1.4,0-2.5-1.1-2.5-2.5v-25L88.2,103
			c0.4,0.2,0.9,0.2,1.4,0l28-12.1L117.5,117.4z M37.3,77.1C49.8,73.2,79.8,61.9,88,58.8l53,18.1L88.9,99.5L54.5,84.6l29-3.8
			c1.6,0.9,3.5,1.3,5.3,1.3c4,0,7-1.6,7-3.7s-3-3.7-7-3.7c-3.5,0-6.2,1.2-6.8,2.9l-33.7,4.4L37.3,77.1z M83.6,78.3
			c0-0.8,2.1-2,5.3-2c3.2,0,5.3,1.2,5.3,2s-2.1,2-5.3,2C85.7,80.3,83.6,79.1,83.6,78.3"/>
	</g>
</g>
</svg>
