<svg version="1.1" id="Laag_1" xmlns="http://www.w3.org/2000/svg" xmlns:xlink="http://www.w3.org/1999/xlink" x="0px" y="0px"
	 viewBox="0 0 184.4 170.4" style="enable-background:new 0 0 184.4 170.4;" xml:space="preserve">
<path fill="#054F9C" id="Element_2_00000009590160498117930950000002863603140964235685_" class="st0" d="M119.2,1c-3-0.4-6.1-0.7-9.5-0.9
	c-19-0.8-36.7,7.3-51.1,18.2S32.5,43.1,19.9,56C14.7,61.4,9,66.7,5.3,73.4c-7.8,13.8-6.5,31.9,1.2,46.9c7.6,15,20.7,27,35.3,36.2
	c13.1,8.2,28.1,14.4,43.1,13.8c8.1-0.3,15.8-2.5,23.4-4.7l35.6-10.3c6.4-1.9,12.8-3.8,18.5-7.2c18.3-11.2,25.5-40.1,20.5-60.1
	c-1.1-4.8-2-9.6-2.7-14.5c-1.4-9.3-2.7-18.7-6.4-27.6c-3.2-7.7-7.7-14.8-13.3-20.9C147.7,10.8,136.2,3.4,119.2,1z"/>
<g fill="#fff">
	<path class="st1" d="M86.3,125.2H72.6v-11.6c0-2.2-0.8-4.3-2.3-5.9l-4.6-5c-1.7-1.8-2.7-4.3-2.7-6.8V81.5c-0.1-1.8,1.3-3.3,3-3.6
		c0.9-0.1,1.9,0.2,2.5,0.9c0.7,0.6,1.1,1.5,1.1,2.4c0,0,0,0,0,0v14.5c0,0,0,0,0,0c0,0.8,0.7,1.5,1.5,1.5l0,0c0,0,0,0,0,0
		c0.8,0,1.5-0.7,1.5-1.5V81.3c0,0,0,0,0,0V65.7c0-1.1,0.7-2.2,1.8-2.4c0.1,0,0.3,0,0.4,0c1.2,0,2.3,1,2.3,2.3c0,0,0,0,0,0v16
		c0,0.8,0.7,1.5,1.5,1.5c0.8,0,1.5-0.7,1.5-1.5v-16c0,0,0,0,0,0v-3.6c0-0.1,0-0.3,0-0.4c0.2-1.2,1.4-2,2.6-1.8
		c1.1,0.3,1.9,1.3,1.8,2.4v3.4c0,0,0,0,0,0s0,0,0,0v8.4c0,0.8,0.7,1.5,1.5,1.5l0,0c0.8,0,1.5-0.7,1.5-1.5v-8.4c0,0,0,0,0,0s0,0,0,0
		c0-0.1,0-0.3,0-0.4c0.2-1.2,1.4-2.1,2.6-1.8c0.8,0.1,1.6-0.4,1.7-1.2s-0.4-1.6-1.2-1.7c-1.1-0.2-2.3,0-3.3,0.5c-0.4-2-2-3.6-4-4.1
		c-2.8-0.6-5.6,1.2-6.1,4c-0.8-0.4-1.7-0.6-2.6-0.6c-2.9,0.1-5.1,2.5-5,5.4v10.3c-1.2-0.7-2.5-1-3.9-0.9c-3.3,0.4-5.8,3.2-5.7,6.5
		V96c0,3.3,1.2,6.4,3.5,8.8l4.6,5c1,1,1.5,2.4,1.5,3.8v13c0,0.8,0.7,1.5,1.5,1.5h15.2v0c0.8,0,1.5-0.7,1.5-1.5
		C87.8,125.9,87.1,125.2,86.3,125.2z"/>
	<path class="st1" d="M123.8,75c-1.3-2.6-4.4-3.7-7-2.4v-2.9c0-0.9-0.2-1.8-0.6-2.6c-1.3-2.6-4.5-3.6-7-2.2c-0.4-2-2-3.6-4-4.1
		c-2.8-0.6-5.6,1.2-6.1,4c-0.8-0.4-1.7-0.6-2.6-0.6c-2.9,0.1-5.1,2.5-5,5.4v10.3c-1.2-0.7-2.5-1-3.9-0.9c-3.3,0.4-5.8,3.2-5.7,6.5
		V100c0,3.3,1.2,6.4,3.5,8.8l4.6,5c1,1,1.5,2.4,1.5,3.8v13c0,0,0,0,0,0c0,0.8,0.7,1.5,1.5,1.5h26.7c0,0,0,0,0,0
		c0.8,0,1.5-0.7,1.5-1.5v-11.4c0-2.8,0.4-5.6,1.2-8.2l0.6-1.9c0.9-2.9,1.4-6,1.4-9.1V77.5C124.4,76.6,124.2,75.8,123.8,75z
		 M121.4,100.1c0,2.8-0.4,5.6-1.2,8.2l-0.6,1.9c-0.9,2.9-1.4,6-1.4,9.1v9.9H94.4l0-11.6c0-2.2-0.8-4.3-2.3-5.9l-4.6-5
		c-1.7-1.8-2.7-4.3-2.7-6.8V85.5c-0.1-1.8,1.3-3.3,3-3.6c0.1,0,0.2,0,0.3,0c1.8,0,3.3,1.5,3.3,3.3c0,0,0,0,0,0v14.5
		c0,0.8,0.7,1.5,1.5,1.5c0,0,0,0,0,0c0.8,0,1.5-0.7,1.5-1.5V85.3c0,0,0,0,0,0V69.7c0-1.1,0.7-2.2,1.8-2.4c0.1,0,0.3,0,0.4,0
		c1.2,0,2.3,1,2.3,2.2c0,0,0,0,0,0v17.2c0,0.8,0.7,1.5,1.5,1.5c0,0,0,0,0,0c0.8,0,1.5-0.7,1.5-1.5V69.5c0,0,0,0,0,0v-3.6
		c0-0.1,0-0.3,0-0.4c0.2-1.2,1.4-2,2.6-1.8c1.1,0.3,1.9,1.3,1.8,2.4v3.3c0,0,0,0,0,0v17.3c0,0,0,0,0,0c0,0.8,0.7,1.5,1.5,1.5l0,0
		c0,0,0,0,0,0c0.8,0,1.5-0.7,1.5-1.5V69.5c0,0,0,0,0,0c0-0.1,0-0.3,0-0.4c0.2-1.2,1.4-2,2.6-1.8c1.1,0.3,1.9,1.3,1.8,2.4v7.6v0v9.5
		c0,0,0,0,0,0c0,0.8,0.7,1.5,1.5,1.5l0,0c0,0,0,0,0,0c0.8,0,1.5-0.7,1.5-1.5v-9.5c0,0,0,0,0,0c0-0.1,0-0.3,0-0.4
		c0.2-1.2,1.4-2,2.6-1.8c1.1,0.3,1.9,1.3,1.8,2.4V100.1z"/>
	<path class="st1" d="M92.9,53.4L92.9,53.4c0.8,0,1.5-0.7,1.5-1.5V36.6c0-0.8-0.7-1.5-1.5-1.5c-0.8,0-1.5,0.7-1.5,1.5v15.3
		C91.5,52.7,92.1,53.4,92.9,53.4z"/>
	<path class="st1" d="M82.9,52.6c0.3,0.5,0.8,0.8,1.3,0.8c0.2,0,0.5-0.1,0.7-0.2c0.7-0.4,1-1.3,0.6-2l-5.6-11c-0.4-0.7-1.3-1-2-0.6
		s-1,1.3-0.6,2L82.9,52.6z"/>
	<path class="st1" d="M101.9,53.4c0.6,0,1.1-0.3,1.3-0.8l5.6-11c0.4-0.7,0.1-1.6-0.6-2s-1.6-0.1-2,0.6l-5.6,11
		c-0.1,0.2-0.2,0.4-0.2,0.7C100.5,52.7,101.1,53.4,101.9,53.4z"/>
</g>
</svg>
