<svg version="1.1" id="Laag_1" xmlns="http://www.w3.org/2000/svg" xmlns:xlink="http://www.w3.org/1999/xlink" x="0px" y="0px"
	 viewBox="0 0 178 182.7" style="enable-background:new 0 0 178 182.7;" xml:space="preserve">
<path fill="#054F9C" id="Element_2" class="st0" d="M1.6,91.3c0.4,3,0.9,6.1,1.6,9.4c4.1,18.6,16.5,33.6,30.8,44.7s30.7,18.7,46.4,27.6
	c6.6,3.6,13.2,7.7,20.6,9.6c15.4,4,32.5-2,45-13.3c12.6-11.2,20.8-27,25.9-43.5c4.5-14.8,6.6-30.9,2.2-45.3
	c-2.4-7.7-6.5-14.6-10.6-21.4l-19.1-31.7c-3.5-5.7-7-11.4-11.7-16C117.1-3.3,87.3-2.8,69.3,7.2c-4.4,2.3-8.8,4.4-13.3,6.4
	c-8.6,3.8-17.4,7.5-25,13.4c-6.6,5-12.3,11.2-16.8,18.2C3.7,61.1-0.5,74.1,1.6,91.3z"/>
<g fill="#fff" id="Group_224" transform="translate(0 0)">
	<path id="Path_233" class="st1" d="M124.5,80.2c0-17.3-14-31.3-31.3-31.3s-31.3,14-31.3,31.3s14,31.3,31.3,31.3
		C110.5,111.5,124.5,97.5,124.5,80.2 M121.3,80.2c0,1.4-0.1,2.8-0.3,4.2c-4.3,3-9,5.3-14.1,6.8c0.3-1.4,0.6-2.7,0.7-4.1
		c0.5-6.1-0.4-12.3-2.7-18.1c4-1,7.8-2.7,11.3-4.9C119.5,68.9,121.2,74.5,121.3,80.2 M106,87c-0.2,1.6-0.4,3.2-0.9,4.8
		c-7.9,1.9-16.1,1.3-23.6-1.5c-0.2-0.1-0.4-0.2-0.6-0.2c-0.2-1-0.4-2-0.5-3c-0.5-6.3,0.6-12.6,3-18.4c3.8,1.1,7.8,1.7,11.8,1.7
		c2.7,0,5.4-0.3,8-0.8C105.5,75,106.4,81,106,87 M114.9,62.4c0.1,0.2,0.2,0.3,0.4,0.5c-3.4,2.1-7.1,3.7-10.9,4.7
		c-2.2-5.4-5.2-10.6-8.7-15.3C103.1,52.9,110.1,56.6,114.9,62.4 M93.2,52.2c0.1,0,0.2,0,0.3,0c3.8,4.8,6.8,10.1,9.2,15.8
		c-6.2,1.2-12.6,0.9-18.6-0.9c2.3-5.3,5.3-10.3,8.8-14.9C93,52.2,93.1,52.2,93.2,52.2 M90.8,52.3c-3.3,4.4-6.1,9.2-8.3,14.3
		c-3.6-1.2-7.1-2.8-10.4-4.9C76.9,56.3,83.6,52.9,90.8,52.3 M65.1,80.2c0-6.3,2.1-12.3,6-17.3c3.4,2.2,7,3.9,10.8,5.1
		c-2.5,6-3.5,12.6-3.1,19.1c0.1,0.7,0.2,1.5,0.3,2.2c-5.1-2.2-9.8-5.1-14-8.7C65.1,80.5,65.1,80.4,65.1,80.2 M65.2,82.8
		c4.3,3.5,9.1,6.3,14.2,8.4c1.6,6.5,5.2,12.4,10.3,16.9C76.7,106.4,66.5,96,65.2,82.8 M93.2,108.3c-0.2,0-0.5,0-0.7,0
		C86.7,103.5,83,98,81.3,91.9c4.6,1.6,9.5,2.5,14.5,2.5c3,0,5.9-0.3,8.8-0.9c-2.1,5.8-5.8,11-10.6,14.8
		C93.7,108.3,93.4,108.3,93.2,108.3 M96.6,108.1c4.6-4,8-9.2,9.8-15.1c5-1.3,9.8-3.5,14.1-6.3C117.8,98.1,108.3,106.6,96.6,108.1"/>
	<path id="Path_234" class="st1" d="M87.1,122.9h-9.3c-3.7,0-6.7,3.1-6.7,6.8c0,3.7,3,6.6,6.7,6.7h30.7c3.7,0,6.8-2.9,6.8-6.7
		c0-3.7-2.9-6.8-6.7-6.8c-0.1,0-0.1,0-0.2,0h-9.3v-1.6c0-0.9-0.2-1.7-0.5-2.5c3.8-0.5,7.4-1.5,11-2.7c1.1-0.4,1.6-1.5,1.2-2.6
		c-0.4-1.1-1.5-1.6-2.6-1.2c-6,2.2-12.4,3.2-18.8,2.8c-17.3-1.4-32-17.9-32-36.1c0-2.9,0.3-5.7,1-8.5c1.1-4.4,3.1-8.5,5.9-12
		c2.8-3.6,6.5-6.4,10.6-8.4c1-0.5,1.5-1.6,1-2.7c-0.5-1-1.6-1.5-2.7-1c-4.7,2.2-8.9,5.4-12.1,9.5c-3.2,4-5.5,8.6-6.7,13.6
		c-0.7,3.1-1.1,6.3-1.1,9.4C53.6,98.7,69,116.6,87.6,119c-0.3,0.7-0.5,1.5-0.5,2.3V122.9z M88.7,126.2c0.9,0,1.6-0.7,1.6-1.6
		c0,0,0,0,0,0v-3.2c0-0.8,0.3-1.5,0.9-2.1c0.4,0,0.8,0,1.2,0c0.8,0,1.7,0,2.5-0.1c0.6,0.5,1,1.3,1,2.1v3.2c0,0.9,0.7,1.6,1.6,1.6
		h10.9c1.9,0,3.5,1.6,3.5,3.5c0,1.9-1.6,3.5-3.5,3.5H77.8c-1.9,0-3.5-1.6-3.5-3.5c0-1.9,1.6-3.5,3.5-3.5L88.7,126.2z"/>
</g>
</svg>
