<svg version="1.1" id="Laag_1" xmlns="http://www.w3.org/2000/svg" xmlns:xlink="http://www.w3.org/1999/xlink" x="0px" y="0px"
	 viewBox="0 0 178 178" style="enable-background:new 0 0 178 178;" xml:space="preserve">
<path fill="#054F9C" id="Element_1" class="st0" d="M44.6,164c-7.1-5.2-13.8-11-20.1-17.1c-8.6-8-17.6-16.6-21.5-28.5C-5,94.3,3.9,50.1,18.7,31.3
	C28.3,19,48.2,10.6,61.7,5.4c15.6-6,32.6-7,48.8-2.8c25.7,6.8,48.3,27.3,60.5,54.4c4.2,9.5,7.2,19.9,7.1,30.6
	c-0.2,14-5.6,27-12.5,38.5c-11.9,20.1-28.7,36.6-48.4,45.3c-19.6,8.7-42.2,9-61.5-0.7C51.8,168.7,48.2,166.4,44.6,164z"/>
<g  id="Group_22">
	<path fill="#fff" id="Path_70" class="st1" d="M87.1,65.5c-12.9,0-23.3,10.4-23.3,23.3c0,12.9,10.4,23.3,23.3,23.3c12.9,0,23.3-10.4,23.3-23.3
		c0,0,0,0,0,0C110.4,75.9,100,65.5,87.1,65.5 M87.1,109.5c-11.4,0-20.6-9.2-20.7-20.6c0-11.4,9.2-20.6,20.6-20.7
		c11.4,0,20.6,9.2,20.7,20.6C107.8,100.2,98.5,109.5,87.1,109.5C87.1,109.5,87.1,109.5,87.1,109.5"/>
	<path fill="#fff" id="Path_71" class="st1" d="M82.9,61.8h8.5c0.7,0,1.3-0.6,1.3-1.3c0-0.2,0-0.4-0.1-0.6l-4.2-12c-0.2-0.5-0.7-0.9-1.3-0.9h0
		c-0.6,0-1.1,0.4-1.3,0.9L83.8,54l-2.1,6c-0.2,0.7,0.1,1.5,0.8,1.7C82.6,61.7,82.8,61.8,82.9,61.8 M86.3,54.8l0.8-2.4l2.4,6.7h-4.7
		L86.3,54.8z"/>
	<path fill="#fff" id="Path_72" class="st1" d="M91.4,115.8h-8.5c-0.7,0-1.3,0.6-1.3,1.3c0,0.2,0,0.3,0.1,0.4l2.1,6l2.1,6
		c0.2,0.5,0.7,0.9,1.3,0.9h0c0.6,0,1.1-0.4,1.3-0.9l4.3-12.1c0.2-0.7-0.1-1.5-0.8-1.7C91.7,115.8,91.5,115.8,91.4,115.8 M87.1,125.2
		l-2.3-6.7h4.7L87.1,125.2z"/>
	<path fill="#fff" id="Path_73" class="st1" d="M97,63.3l3.7,2.1l3.7,2.1c0.6,0.4,1.5,0.2,1.8-0.5c0.1-0.1,0.1-0.3,0.2-0.4l2.3-12.6
		c0.1-0.7-0.3-1.4-1.1-1.6c-0.4-0.1-0.8,0-1.1,0.3l-4.9,4.2l-4.9,4.2c-0.6,0.5-0.6,1.3-0.1,1.9C96.7,63.1,96.8,63.2,97,63.3
		 M103.4,58.9l2-1.7l-1.3,7l-4.1-2.3L103.4,58.9z"/>
	<path fill="#fff" id="Path_74" class="st1" d="M77.3,114.3l-3.7-2.1l-3.7-2.1c-0.6-0.4-1.5-0.1-1.8,0.5c-0.1,0.1-0.1,0.3-0.2,0.4l-1.2,6.3
		l-1.2,6.3c-0.1,0.7,0.3,1.4,1.1,1.6c0.4,0.1,0.8,0,1.1-0.3l9.8-8.4c0.6-0.5,0.6-1.3,0.1-1.9C77.6,114.5,77.5,114.4,77.3,114.3
		 M68.9,120.3l1.3-7l4.1,2.3L68.9,120.3z"/>
	<path fill="#fff" id="Path_75" class="st1" d="M108.4,70.4c-0.2,0.4-0.2,0.8,0,1.2l2.1,3.7l2.1,3.7c0.2,0.4,0.6,0.6,1,0.7c0,0,0.1,0,0.1,0
		c0.4,0,0.8-0.2,1-0.5l8.4-9.8c0.5-0.6,0.4-1.4-0.1-1.9c-0.3-0.3-0.7-0.4-1.1-0.3l-6.3,1.2l-6.3,1.2C108.9,69.7,108.5,70,108.4,70.4
		 M116.1,71.1l2.5-0.5L114,76l-2.3-4.1L116.1,71.1z"/>
	<path fill="#fff" id="Path_76" class="st1" d="M65.9,107.2c0.2-0.4,0.2-0.9-0.1-1.2l-2.1-3.7l-2.1-3.7c-0.4-0.6-1.2-0.9-1.8-0.5
		c-0.1,0.1-0.3,0.2-0.4,0.3l-4.2,4.9l-4.2,4.9c-0.5,0.6-0.4,1.4,0.1,1.9c0.2,0.2,0.5,0.3,0.9,0.3c0.1,0,0.2,0,0.2,0l12.6-2.3
		C65.4,107.9,65.7,107.6,65.9,107.2 M55.6,107l4.7-5.4l2.3,4.1L55.6,107z"/>
	<path  fill="#fff" id="Path_77" class="st1" d="M128,87.5l-6-2.1l-6-2.1c-0.7-0.2-1.5,0.1-1.7,0.8c-0.1,0.1-0.1,0.3-0.1,0.4V93
		c0,0.7,0.6,1.3,1.3,1.3c0.2,0,0.3,0,0.4-0.1L128,90c0.7-0.2,1.1-1,0.8-1.7C128.7,87.9,128.4,87.6,128,87.5 M116.8,91.1v-4.7
		l4.3,1.5l2.4,0.8L116.8,91.1z"/>
	<path fill="#fff" id="Path_78" class="st1" d="M58.8,94.4c0.7,0,1.3-0.6,1.3-1.3v-8.5c0-0.7-0.6-1.3-1.3-1.3c-0.2,0-0.3,0-0.4,0.1l-6,2.1
		l-6,2.1c-0.7,0.2-1.1,1-0.8,1.7c0.1,0.4,0.4,0.7,0.8,0.8l12.1,4.3C58.5,94.3,58.6,94.4,58.8,94.4 M57.5,91.1l-6.7-2.4l6.7-2.3
		L57.5,91.1z"/>
	<path fill="#fff" id="Path_79" class="st1" d="M119,103.3l-4.2-4.9c-0.5-0.6-1.3-0.6-1.9-0.1c-0.1,0.1-0.2,0.2-0.3,0.3l-2.1,3.7l-2.1,3.7
		c-0.4,0.6-0.1,1.5,0.5,1.8c0.1,0.1,0.3,0.1,0.4,0.2l12.6,2.3c0.1,0,0.2,0,0.2,0h0c0.7,0,1.3-0.6,1.3-1.3c0-0.4-0.2-0.7-0.4-1
		L119,103.3z M111.7,105.7l2.3-4.1l2.9,3.4l1.7,2L111.7,105.7z"/>
	<path fill="#fff" id="Path_80" class="st1" d="M55.3,74.3l4.2,4.9c0.3,0.3,0.6,0.5,1,0.5c0,0,0.1,0,0.1,0c0.4,0,0.8-0.3,1-0.7l2.1-3.7l2.1-3.7
		c0.4-0.6,0.2-1.5-0.5-1.8c-0.1-0.1-0.3-0.1-0.4-0.2l-6.3-1.2l-6.3-1.2c-0.7-0.1-1.4,0.3-1.6,1.1c-0.1,0.4,0,0.8,0.3,1.1L55.3,74.3z
		 M62.6,71.9L60.3,76l-3-3.4l-1.7-2L62.6,71.9z"/>
	<path fill="#fff" id="Path_81" class="st1" d="M106.3,111c-0.1-0.7-0.8-1.2-1.6-1.1c-0.1,0-0.3,0.1-0.4,0.2l-3.7,2.1l-3.7,2.1
		c-0.6,0.4-0.9,1.2-0.5,1.8c0.1,0.1,0.2,0.2,0.3,0.3l4.8,4.2l4.9,4.2c0.2,0.2,0.6,0.3,0.9,0.3h0c0.7,0,1.3-0.6,1.3-1.3
		c0-0.1,0-0.3-0.1-0.4L106.3,111z M99.9,115.6l4.1-2.3l1.3,7L99.9,115.6z"/>
	<path fill="#fff" id="Path_82" class="st1" d="M66.8,60.3l1.2,6.3c0.1,0.7,0.8,1.2,1.6,1.1c0.1,0,0.3-0.1,0.4-0.2l3.7-2.1l3.7-2.1
		c0.6-0.4,0.9-1.2,0.5-1.8c-0.1-0.1-0.2-0.3-0.3-0.4l-4.9-4.2l-4.9-4.2c-0.6-0.5-1.4-0.4-1.9,0.2c-0.3,0.3-0.4,0.7-0.3,1.1
		L66.8,60.3z M70.9,58.9l3.4,3l-4.1,2.3l-0.8-4.4l-0.5-2.6L70.9,58.9z"/>
</g>
</svg>
